# Minimal 12-Vertex Sphere (Icosahedron)
v  0.000000  1.000000  0.000000
v  0.894427  0.447214  0.000000
v  0.276393  0.447214  0.850651
v -0.723607  0.447214  0.525731
v -0.723607  0.447214 -0.525731
v  0.276393  0.447214 -0.850651
v  0.723607 -0.447214  0.525731
v -0.276393 -0.447214  0.850651
v -0.894427 -0.447214  0.000000
v -0.276393 -0.447214 -0.850651
v  0.723607 -0.447214 -0.525731
v  0.000000 -1.000000  0.000000

f 1 3 2
f 1 4 3
f 1 5 4
f 1 6 5
f 1 2 6
f 2 3 7
f 3 4 8
f 4 5 9
f 5 6 10
f 6 2 11
f 3 8 7
f 4 9 8
f 5 10 9
f 6 11 10
f 2 7 11
f 12 7 8
f 12 8 9
f 12 9 10
f 12 10 11
f 12 11 7
