# Utah Teapot Model
# Version: Custom
# Triangle Mesh Resolution: 2 (240 faces)
o Utah Teapot

v -1.5 2.1 0
v -1.55 1.9875 -0.225
v -1.6 1.875 0
v -2.625 2.04375 0
v -2.51875 1.945313 -0.225
v -2.4125 1.846875 0
v -3 1.65 0
v -2.85 1.65 -0.225
v -2.7 1.65 0
v -1.55 1.9875 0.225
v -2.51875 1.945313 0.225
v -2.85 1.65 0.225
v -2.73125 1.007812 0
v -2.634375 1.103906 -0.225
v -2.5375 1.2 0
v -1.9 0.45 0
v -1.95 0.6 -0.225
v -2 0.75 0
v -2.634375 1.103906 0.225
v -1.95 0.6 0.225
v 2.8 2.25 0
v 3 2.25 -0.1125
v 3.2 2.25 0
v 2.825 2.30625 0
v 3.126563 2.316797 -0.15
v 3.428125 2.327344 0
v 2.7 2.25 0
v 3 2.25 -0.1875
v 3.3 2.25 0
v 3 2.25 0.1125
v 3.126563 2.316797 0.15
v 3 2.25 0.1875
v 2.3875 1.65 0
v 2.5375 1.471875 -0.34125
v 2.6875 1.29375 0
v 1.7 1.275 0
v 1.7 0.8625 -0.495
v 1.7 0.45 0
v 2.5375 1.471875 0.34125
v 1.7 0.8625 0.495
v 0 3 0
v -0.325 2.83125 0
v -0.2310313 2.83125 -0.2310313
v 0 2.83125 -0.325
v -0.2 2.55 0
v -0.142 2.55 -0.142
v 0 2.55 -0.2
v 0.2310313 2.83125 -0.2310313
v 0.325 2.83125 0
v 0.142 2.55 -0.142
v 0.2 2.55 0
v 0 2.83125 0.325
v 0.2310313 2.83125 0.2310313
v 0 2.55 0.2
v 0.142 2.55 0.142
v -0.2310313 2.83125 0.2310313
v -0.142 2.55 0.142
v -0.825 2.4 0
v -0.58575 2.4 -0.58575
v 0 2.4 -0.825
v -1.3 2.25 0
v -0.923 2.25 -0.923
v 0 2.25 -1.3
v 0.58575 2.4 -0.58575
v 0.825 2.4 0
v 0.923 2.25 -0.923
v 1.3 2.25 0
v 0 2.4 0.825
v 0.58575 2.4 0.58575
v 0 2.25 1.3
v 0.923 2.25 0.923
v -0.58575 2.4 0.58575
v -0.923 2.25 0.923
v -1.4 2.25 0
v -0.994 2.25 -0.994
v 0 2.25 -1.4
v -1.403125 2.348438 0
v -0.9962187 2.348438 -0.9962187
v 0 2.348438 -1.403125
v -1.5 2.25 0
v -1.065 2.25 -1.065
v 0 2.25 -1.5
v 0.994 2.25 -0.994
v 1.4 2.25 0
v 0.9962187 2.348438 -0.9962187
v 1.403125 2.348438 0
v 1.065 2.25 -1.065
v 1.5 2.25 0
v 0 2.25 1.4
v 0.994 2.25 0.994
v 0 2.348438 1.403125
v 0.9962187 2.348438 0.9962187
v 0 2.25 1.5
v 1.065 2.25 1.065
v -0.994 2.25 0.994
v -0.9962187 2.348438 0.9962187
v -1.065 2.25 1.065
v -1.84375 1.471875 0
v -1.309063 1.471875 -1.309063
v 0 1.471875 -1.84375
v -2 0.75 0
v -1.42 0.75 -1.42
v 0 0.75 -2
v 1.309063 1.471875 -1.309063
v 1.84375 1.471875 0
v 1.42 0.75 -1.42
v 2 0.75 0
v 0 1.471875 1.84375
v 1.309063 1.471875 1.309063
v 0 0.75 2
v 1.42 0.75 1.42
v -1.309063 1.471875 1.309063
v -1.42 0.75 1.42
v -1.75 0.234375 0
v -1.2425 0.234375 -1.2425
v 0 0.234375 -1.75
v -1.5 0 0
v -1.065 1.117587e-8 -1.065
v 0 0 -1.5
v 1.2425 0.234375 -1.2425
v 1.75 0.234375 0
v 1.065 1.117587e-8 -1.065
v 1.5 0 0
v 0 0.234375 1.75
v 1.2425 0.234375 1.2425
v 0 0 1.5
v 1.065 1.117587e-8 1.065
v -1.2425 0.234375 1.2425
v -1.065 1.117587e-8 1.065
v -0.75 1.117587e-8 0
v -0.5325 1.117587e-8 -0.5325
v 0 1.117587e-8 -0.75
v 0 0 0
v 0.5325 1.117587e-8 -0.5325
v 0.75 1.117587e-8 0
v 0 1.117587e-8 0.75
v 0.5325 1.117587e-8 0.5325
v -0.5325 1.117587e-8 0.5325

vn 0 1 0
vn 0 0 -1
vn 0 -1 0
vn -0.2873479 0.9578263 0
vn 0 0 -1
vn 0.1961161 -0.9805806 0
vn -1 0 0
vn 0 0 -1
vn 1 0 0
vn 0 0 1
vn 0 0 1
vn 0 0 1
vn -0.8290722 -0.5591416 0
vn 0 0 -1
vn 0.8944272 0.4472137 0
vn -0.5144956 -0.857493 0
vn 0 0 -1
vn 0.5144957 0.8574929 0
vn 0 0 1
vn 0 0 1
vn 0.7071059 -0.7071076 0
vn 0 0 1
vn -0.5144954 0.8574931 0
vn 0 1 0
vn -0.04643553 0.9957836 -0.07911264
vn 0.1414206 0.9899496 0
vn -0.7071068 0.7071068 0
vn 0 0 -1
vn 0.4856427 -0.8741574 0
vn 0 0 -1
vn -0.04643553 0.9957836 0.07911264
vn 0 0 1
vn -0.9529258 0.3032037 0
vn 0.2156225 0.1361827 -0.9669339
vn 0.9756098 -0.2195122 0
vn 0 1 0
vn 0 0 -1
vn 0.2095291 -0.9778025 0
vn 0.2156225 0.1361827 0.9669339
vn 0 0 1
vn 0 1 0
vn -0.8574929 -0.5144958 0
vn -0.605398 -0.5167072 -0.605398
vn 0 -0.5144958 -0.8574929
vn -0.7071068 0.7071067 0
vn -0.4989779 0.7085493 -0.4989779
vn 0 0.7071067 -0.7071068
vn 0.605398 -0.5167072 -0.605398
vn 0.8574929 -0.5144958 0
vn 0.4989779 0.7085493 -0.4989779
vn 0.7071068 0.7071067 0
vn 0 -0.5144958 0.8574929
vn 0.605398 -0.5167072 0.605398
vn 0 0.7071067 0.7071068
vn 0.4989779 0.7085493 0.4989779
vn -0.605398 -0.5167072 0.605398
vn -0.4989779 0.7085493 0.4989779
vn -0.1961161 0.9805807 0
vn -0.1381314 0.9807341 -0.1381314
vn 0 0.9805807 -0.1961161
vn -1 0 0
vn -0.7071068 0 -0.7071068
vn 0 0 -1
vn 0.1381314 0.9807341 -0.1381314
vn 0.1961161 0.9805807 0
vn 0.7071068 0 -0.7071068
vn 1 0 0
vn 0 0.9805807 0.1961161
vn 0.1381314 0.9807341 0.1381314
vn 0 0 1
vn 0.7071068 0 0.7071068
vn -0.1381314 0.9807341 0.1381314
vn -0.7071068 0 0.7071068
vn 0.9417419 -0.3363365 0
vn 0.6656033 -0.3375565 0.6656033
vn 0 -0.3363365 0.9417419
vn 0 1 0
vn 0 1 0
vn 0 1 0
vn -0.9417419 0.3363365 0
vn -0.6656032 0.3375569 -0.6656032
vn 0 0.3363365 -0.9417419
vn -0.6656033 -0.3375565 0.6656033
vn -0.9417419 -0.3363365 0
vn 0 1 0
vn 0 1 0
vn 0.6656032 0.3375569 -0.6656032
vn 0.9417419 0.3363365 0
vn 0 -0.3363365 -0.9417419
vn -0.6656033 -0.3375565 -0.6656033
vn 0 1 0
vn 0 1 0
vn 0 0.3363365 0.9417419
vn 0.6656032 0.3375569 0.6656032
vn 0.6656033 -0.3375565 -0.6656033
vn 0 1 0
vn -0.6656032 0.3375569 0.6656032
vn -0.9635179 0.2676438 0
vn -0.6811101 0.2686601 -0.6811101
vn 0 0.2676438 -0.9635179
vn -1 0 0
vn -0.7071068 0 -0.7071068
vn 0 0 -1
vn 0.6811101 0.2686601 -0.6811101
vn 0.9635179 0.2676438 0
vn 0.7071068 0 -0.7071068
vn 1 0 0
vn 0 0.2676438 0.9635179
vn 0.6811101 0.2686601 0.6811101
vn 0 0 1
vn 0.7071068 0 0.7071068
vn -0.6811101 0.2686601 0.6811101
vn -0.7071068 0 0.7071068
vn -0.792624 -0.6097108 0
vn -0.5596175 -0.6112745 -0.5596175
vn 0 -0.6097108 -0.792624
vn -1 0 0
vn -0.7071068 0 -0.7071068
vn 0 0 -1
vn 0.5596175 -0.6112745 -0.5596175
vn 0.792624 -0.6097108 0
vn 0.7071068 0 -0.7071068
vn 1 0 0
vn 0 -0.6097108 0.792624
vn 0.5596175 -0.6112745 0.5596175
vn 0 0 1
vn 0.7071068 0 0.7071068
vn -0.5596175 -0.6112745 0.5596175
vn -0.7071068 0 0.7071068
vn 0 -1 0
vn 0 -1 0
vn 0 -1 0
vn 0 -1 0
vn 0 -1 0
vn 0 -1 0
vn 0 -1 0
vn 0 -1 0
vn 0 -1 0

vt 0.125 1
vt 0.1875 1
vt 0.25 1
vt 0.125 0.8571429
vt 0.1875 0.8535714
vt 0.25 0.8482143
vt 0.125 0.75
vt 0.1875 0.75
vt 0.25 0.75
vt 0.0625 1
vt 0 1
vt 0.0625 0.8535714
vt 0 0.8482143
vt 0.0625 0.75
vt 0 0.75
vt 0.125 0.6380109
vt 0.1875 0.6402794
vt 0.25 0.6433718
vt 0.125 0.502
vt 0.1875 0.502
vt 0.25 0.502
vt 0.0625 0.6402794
vt 0 0.6433718
vt 0.0625 0.502
vt 0 0.502
vt 0.75 1
vt 0.8125 1
vt 0.875 1
vt 0.75 0.9625
vt 0.8125 0.9614999
vt 0.875 0.9609703
vt 0.75 0.925
vt 0.8125 0.925
vt 0.875 0.925
vt 1 1
vt 0.9375 1
vt 1 0.9625
vt 0.9375 0.9614999
vt 1 0.925
vt 0.9375 0.925
vt 0.75 0.7345684
vt 0.8125 0.7301619
vt 0.875 0.7277346
vt 0.75 0.5
vt 0.8125 0.5
vt 0.875 0.5
vt 1 0.7345684
vt 0.9375 0.7301619
vt 1 0.5
vt 0.9375 0.5
vt 0.28125 1
vt 0.34375 1
vt 0.25 0.8504796
vt 0.3125 0.8504109
vt 0.375 0.8504796
vt 0.25 0.75
vt 0.3125 0.75
vt 0.375 0.75
vt 0.40625 1
vt 0.46875 1
vt 0.4375 0.8504109
vt 0.5 0.8504796
vt 0.4375 0.75
vt 0.5 0.75
vt 0.59375 1
vt 0.53125 1
vt 0.625 0.8504796
vt 0.5625 0.8504109
vt 0.625 0.75
vt 0.5625 0.75
vt 0.71875 1
vt 0.65625 1
vt 0.75 0.8504796
vt 0.6875 0.8504109
vt 0.75 0.75
vt 0.6875 0.75
vt 0.25 0.6193837
vt 0.3125 0.6193618
vt 0.375 0.6193837
vt 0.25 0.5
vt 0.3125 0.5
vt 0.375 0.5
vt 0.4375 0.6193618
vt 0.5 0.6193837
vt 0.4375 0.5
vt 0.5 0.5
vt 0.625 0.6193837
vt 0.5625 0.6193618
vt 0.625 0.5
vt 0.5625 0.5
vt 0.75 0.6193837
vt 0.6875 0.6193618
vt 0.75 0.5
vt 0.6875 0.5
vt 0 0.5
vt 0.125 0.5
vt 0.25 0.5
vt 0 0.479
vt 0.125 0.479
vt 0.25 0.479
vt 0 0.458
vt 0.125 0.458
vt 0.25 0.458
vt 0.375 0.5
vt 0.5 0.5
vt 0.375 0.479
vt 0.5 0.479
vt 0.375 0.458
vt 0.5 0.458
vt 0.75 0.5
vt 0.625 0.5
vt 0.75 0.479
vt 0.625 0.479
vt 0.75 0.458
vt 0.625 0.458
vt 1 0.5
vt 0.875 0.5
vt 1 0.479
vt 0.875 0.479
vt 1 0.458
vt 0.875 0.458
vt 0 0.3586324
vt 0.125 0.3586224
vt 0.25 0.3586324
vt 0 0.269
vt 0.125 0.269
vt 0.25 0.269
vt 0.375 0.3586224
vt 0.5 0.3586324
vt 0.375 0.269
vt 0.5 0.269
vt 0.75 0.3586324
vt 0.625 0.3586224
vt 0.75 0.269
vt 0.625 0.269
vt 1 0.3586324
vt 0.875 0.3586224
vt 1 0.269
vt 0.875 0.269
vt 0 0.1921104
vt 0.125 0.1921341
vt 0.25 0.1921104
vt 0 0.15
vt 0.125 0.15
vt 0.25 0.15
vt 0.375 0.1921341
vt 0.5 0.1921104
vt 0.375 0.15
vt 0.5 0.15
vt 0.75 0.1921104
vt 0.625 0.1921341
vt 0.75 0.15
vt 0.625 0.15
vt 1 0.1921104
vt 0.875 0.1921341
vt 1 0.15
vt 0.875 0.15
vt 0 0.07499999
vt 0.125 0.07499999
vt 0.25 0.07499999
vt 0.0625 0
vt 0.1875 0
vt 0.375 0.07499999
vt 0.5 0.07499999
vt 0.3125 0
vt 0.4375 0
vt 0.75 0.07499999
vt 0.625 0.07499999
vt 0.6875 0
vt 0.5625 0
vt 1 0.07499999
vt 0.875 0.07499999
vt 0.9375 0
vt 0.8125 0

f 2/2/2 4/4/4 1/1/1
f 4/4/4 2/2/2 5/5/5
f 3/3/3 5/5/5 2/2/2
f 5/5/5 3/3/3 6/6/6
f 5/5/5 7/7/7 4/4/4
f 7/7/7 5/5/5 8/8/8
f 6/6/6 8/8/8 5/5/5
f 8/8/8 6/6/6 9/9/9
f 1/1/1 11/12/11 10/10/10
f 11/12/11 1/1/1 4/4/4
f 10/10/10 6/13/6 3/11/3
f 6/13/6 10/10/10 11/12/11
f 4/4/4 12/14/12 11/12/11
f 12/14/12 4/4/4 7/7/7
f 11/12/11 9/15/9 6/13/6
f 9/15/9 11/12/11 12/14/12
f 8/8/8 13/16/13 7/7/7
f 13/16/13 8/8/8 14/17/14
f 9/9/9 14/17/14 8/8/8
f 14/17/14 9/9/9 15/18/15
f 14/17/14 16/19/16 13/16/13
f 16/19/16 14/17/14 17/20/17
f 15/18/15 17/20/17 14/17/14
f 17/20/17 15/18/15 18/21/18
f 7/7/7 19/22/19 12/14/12
f 19/22/19 7/7/7 13/16/13
f 12/14/12 15/23/15 9/15/9
f 15/23/15 12/14/12 19/22/19
f 13/16/13 20/24/20 19/22/19
f 20/24/20 13/16/13 16/19/16
f 19/22/19 18/25/18 15/23/15
f 18/25/18 19/22/19 20/24/20
f 22/27/22 24/29/24 21/26/21
f 24/29/24 22/27/22 25/30/25
f 23/28/23 25/30/25 22/27/22
f 25/30/25 23/28/23 26/31/26
f 25/30/25 27/32/27 24/29/24
f 27/32/27 25/30/25 28/33/28
f 26/31/26 28/33/28 25/30/25
f 28/33/28 26/31/26 29/34/29
f 21/35/21 31/38/31 30/36/30
f 31/38/31 21/35/21 24/37/24
f 30/36/30 26/31/26 23/28/23
f 26/31/26 30/36/30 31/38/31
f 24/37/24 32/40/32 31/38/31
f 32/40/32 24/37/24 27/39/27
f 31/38/31 29/34/29 26/31/26
f 29/34/29 31/38/31 32/40/32
f 28/33/28 33/41/33 27/32/27
f 33/41/33 28/33/28 34/42/34
f 29/34/29 34/42/34 28/33/28
f 34/42/34 29/34/29 35/43/35
f 34/42/34 36/44/36 33/41/33
f 36/44/36 34/42/34 37/45/37
f 35/43/35 37/45/37 34/42/34
f 37/45/37 35/43/35 38/46/38
f 27/39/27 39/48/39 32/40/32
f 39/48/39 27/39/27 33/47/33
f 32/40/32 35/43/35 29/34/29
f 35/43/35 32/40/32 39/48/39
f 33/47/33 40/50/40 39/48/39
f 40/50/40 33/47/33 36/49/36
f 39/48/39 38/46/38 35/43/35
f 38/46/38 39/48/39 40/50/40
f 41/51/41 43/54/43 42/53/42
f 41/52/41 44/55/44 43/54/43
f 43/54/43 45/56/45 42/53/42
f 45/56/45 43/54/43 46/57/46
f 44/55/44 46/57/46 43/54/43
f 46/57/46 44/55/44 47/58/47
f 41/59/41 48/61/48 44/55/44
f 41/60/41 49/62/49 48/61/48
f 48/61/48 47/58/47 44/55/44
f 47/58/47 48/61/48 50/63/50
f 49/62/49 50/63/50 48/61/48
f 50/63/50 49/62/49 51/64/51
f 52/67/52 53/68/53 41/65/41
f 53/68/53 49/62/49 41/66/41
f 52/67/52 55/70/55 53/68/53
f 55/70/55 52/67/52 54/69/54
f 53/68/53 51/64/51 49/62/49
f 51/64/51 53/68/53 55/70/55
f 42/73/42 56/74/56 41/71/41
f 56/74/56 52/67/52 41/72/41
f 42/73/42 57/76/57 56/74/56
f 57/76/57 42/73/42 45/75/45
f 56/74/56 54/69/54 52/67/52
f 54/69/54 56/74/56 57/76/57
f 46/57/46 58/77/58 45/56/45
f 58/77/58 46/57/46 59/78/59
f 47/58/47 59/78/59 46/57/46
f 59/78/59 47/58/47 60/79/60
f 59/78/59 61/80/61 58/77/58
f 61/80/61 59/78/59 62/81/62
f 60/79/60 62/81/62 59/78/59
f 62/81/62 60/79/60 63/82/63
f 50/63/50 60/79/60 47/58/47
f 60/79/60 50/63/50 64/83/64
f 51/64/51 64/83/64 50/63/50
f 64/83/64 51/64/51 65/84/65
f 64/83/64 63/82/63 60/79/60
f 63/82/63 64/83/64 66/85/66
f 65/84/65 66/85/66 64/83/64
f 66/85/66 65/84/65 67/86/67
f 54/69/54 69/88/69 55/70/55
f 69/88/69 54/69/54 68/87/68
f 55/70/55 65/84/65 51/64/51
f 65/84/65 55/70/55 69/88/69
f 68/87/68 71/90/71 69/88/69
f 71/90/71 68/87/68 70/89/70
f 69/88/69 67/86/67 65/84/65
f 67/86/67 69/88/69 71/90/71
f 45/75/45 72/92/72 57/76/57
f 72/92/72 45/75/45 58/91/58
f 57/76/57 68/87/68 54/69/54
f 68/87/68 57/76/57 72/92/72
f 58/91/58 73/94/73 72/92/72
f 73/94/73 58/91/58 61/93/61
f 72/92/72 70/89/70 68/87/68
f 70/89/70 72/92/72 73/94/73
f 75/96/75 77/98/77 74/95/74
f 77/98/77 75/96/75 78/99/78
f 76/97/76 78/99/78 75/96/75
f 78/99/78 76/97/76 79/100/79
f 78/99/78 80/101/80 77/98/77
f 80/101/80 78/99/78 81/102/81
f 79/100/79 81/102/81 78/99/78
f 81/102/81 79/100/79 82/103/82
f 83/104/83 79/100/79 76/97/76
f 79/100/79 83/104/83 85/106/85
f 84/105/84 85/106/85 83/104/83
f 85/106/85 84/105/84 86/107/86
f 85/106/85 82/103/82 79/100/79
f 82/103/82 85/106/85 87/108/87
f 86/107/86 87/108/87 85/106/85
f 87/108/87 86/107/86 88/109/88
f 89/110/89 92/113/92 90/111/90
f 92/113/92 89/110/89 91/112/91
f 90/111/90 86/107/86 84/105/84
f 86/107/86 90/111/90 92/113/92
f 91/112/91 94/115/94 92/113/92
f 94/115/94 91/112/91 93/114/93
f 92/113/92 88/109/88 86/107/86
f 88/109/88 92/113/92 94/115/94
f 74/116/74 96/119/96 95/117/95
f 96/119/96 74/116/74 77/118/77
f 95/117/95 91/112/91 89/110/89
f 91/112/91 95/117/95 96/119/96
f 77/118/77 97/121/97 96/119/96
f 97/121/97 77/118/77 80/120/80
f 96/119/96 93/114/93 91/112/91
f 93/114/93 96/119/96 97/121/97
f 81/102/81 98/122/98 80/101/80
f 98/122/98 81/102/81 99/123/99
f 82/103/82 99/123/99 81/102/81
f 99/123/99 82/103/82 100/124/100
f 99/123/99 101/125/101 98/122/98
f 101/125/101 99/123/99 102/126/102
f 100/124/100 102/126/102 99/123/99
f 102/126/102 100/124/100 103/127/103
f 87/108/87 100/124/100 82/103/82
f 100/124/100 87/108/87 104/128/104
f 88/109/88 104/128/104 87/108/87
f 104/128/104 88/109/88 105/129/105
f 104/128/104 103/127/103 100/124/100
f 103/127/103 104/128/104 106/130/106
f 105/129/105 106/130/106 104/128/104
f 106/130/106 105/129/105 107/131/107
f 93/114/93 109/133/109 94/115/94
f 109/133/109 93/114/93 108/132/108
f 94/115/94 105/129/105 88/109/88
f 105/129/105 94/115/94 109/133/109
f 108/132/108 111/135/111 109/133/109
f 111/135/111 108/132/108 110/134/110
f 109/133/109 107/131/107 105/129/105
f 107/131/107 109/133/109 111/135/111
f 80/120/80 112/137/112 97/121/97
f 112/137/112 80/120/80 98/136/98
f 97/121/97 108/132/108 93/114/93
f 108/132/108 97/121/97 112/137/112
f 98/136/98 113/139/113 112/137/112
f 113/139/113 98/136/98 101/138/101
f 112/137/112 110/134/110 108/132/108
f 110/134/110 112/137/112 113/139/113
f 102/126/102 114/140/114 101/125/101
f 114/140/114 102/126/102 115/141/115
f 103/127/103 115/141/115 102/126/102
f 115/141/115 103/127/103 116/142/116
f 115/141/115 117/143/117 114/140/114
f 117/143/117 115/141/115 118/144/118
f 116/142/116 118/144/118 115/141/115
f 118/144/118 116/142/116 119/145/119
f 106/130/106 116/142/116 103/127/103
f 116/142/116 106/130/106 120/146/120
f 107/131/107 120/146/120 106/130/106
f 120/146/120 107/131/107 121/147/121
f 120/146/120 119/145/119 116/142/116
f 119/145/119 120/146/120 122/148/122
f 121/147/121 122/148/122 120/146/120
f 122/148/122 121/147/121 123/149/123
f 110/134/110 125/151/125 111/135/111
f 125/151/125 110/134/110 124/150/124
f 111/135/111 121/147/121 107/131/107
f 121/147/121 111/135/111 125/151/125
f 124/150/124 127/153/127 125/151/125
f 127/153/127 124/150/124 126/152/126
f 125/151/125 123/149/123 121/147/121
f 123/149/123 125/151/125 127/153/127
f 101/138/101 128/155/128 113/139/113
f 128/155/128 101/138/101 114/154/114
f 113/139/113 124/150/124 110/134/110
f 124/150/124 113/139/113 128/155/128
f 114/154/114 129/157/129 128/155/128
f 129/157/129 114/154/114 117/156/117
f 128/155/128 126/152/126 124/150/124
f 126/152/126 128/155/128 129/157/129
f 118/144/118 130/158/130 117/143/117
f 130/158/130 118/144/118 131/159/131
f 119/145/119 131/159/131 118/144/118
f 131/159/131 119/145/119 132/160/132
f 131/159/131 133/161/133 130/158/130
f 132/160/132 133/162/133 131/159/131
f 122/148/122 132/160/132 119/145/119
f 132/160/132 122/148/122 134/163/134
f 123/149/123 134/163/134 122/148/122
f 134/163/134 123/149/123 135/164/135
f 134/163/134 133/165/133 132/160/132
f 135/164/135 133/166/133 134/163/134
f 126/152/126 137/168/137 127/153/127
f 137/168/137 126/152/126 136/167/136
f 127/153/127 135/164/135 123/149/123
f 135/164/135 127/153/127 137/168/137
f 136/167/136 133/169/133 137/168/137
f 137/168/137 133/170/133 135/164/135
f 117/156/117 138/172/138 129/157/129
f 138/172/138 117/156/117 130/171/130
f 129/157/129 136/167/136 126/152/126
f 136/167/136 129/157/129 138/172/138
f 130/171/130 133/173/133 138/172/138
f 138/172/138 133/174/133 136/167/136
